<svg width="451" height="68" viewBox="0 0 451 68" fill="none" xmlns="http://www.w3.org/2000/svg">
<path d="M34.1289 52H24.25V32.9453C24.25 28.9141 24.0391 26.3125 23.6172 25.1406C23.1953 23.9453 22.5039 23.0195 21.543 22.3633C20.6055 21.707 19.4688 21.3789 18.1328 21.3789C16.4219 21.3789 14.8867 21.8477 13.5273 22.7852C12.168 23.7227 11.2305 24.9648 10.7148 26.5117C10.2227 28.0586 9.97656 30.918 9.97656 35.0898V52H0.0976562V14.6641H9.27344V20.1484C12.5312 15.9297 16.6328 13.8203 21.5781 13.8203C23.7578 13.8203 25.75 14.2187 27.5547 15.0156C29.3594 15.7891 30.7188 16.7852 31.6328 18.0039C32.5703 19.2227 33.2148 20.6055 33.5664 22.1523C33.9414 23.6992 34.1289 25.9141 34.1289 28.7969V52ZM44.1836 9.60156V0.460938H54.0625V9.60156H44.1836ZM44.1836 52V14.6641H54.0625V52H44.1836ZM60.7422 41.3477L70.6562 39.8359C71.0781 41.7578 71.9336 43.2227 73.2227 44.2305C74.5117 45.2148 76.3164 45.707 78.6367 45.707C81.1914 45.707 83.1133 45.2383 84.4023 44.3008C85.2695 43.6445 85.7031 42.7656 85.7031 41.6641C85.7031 40.9141 85.4688 40.293 85 39.8008C84.5078 39.332 83.4062 38.8984 81.6953 38.5C73.7266 36.7422 68.6758 35.1367 66.543 33.6836C63.5898 31.668 62.1133 28.8672 62.1133 25.2812C62.1133 22.0469 63.3906 19.3281 65.9453 17.125C68.5 14.9219 72.4609 13.8203 77.8281 13.8203C82.9375 13.8203 86.7344 14.6523 89.2188 16.3164C91.7031 17.9805 93.4141 20.4414 94.3516 23.6992L85.0352 25.4219C84.6367 23.9688 83.875 22.8555 82.75 22.082C81.6484 21.3086 80.0664 20.9219 78.0039 20.9219C75.4023 20.9219 73.5391 21.2852 72.4141 22.0117C71.6641 22.5273 71.2891 23.1953 71.2891 24.0156C71.2891 24.7188 71.6172 25.3164 72.2734 25.8086C73.1641 26.4648 76.2344 27.3906 81.4844 28.5859C86.7578 29.7812 90.4375 31.2461 92.5234 32.9805C94.5859 34.7383 95.6172 37.1875 95.6172 40.3281C95.6172 43.75 94.1875 46.6914 91.3281 49.1523C88.4688 51.6133 84.2383 52.8438 78.6367 52.8438C73.5508 52.8438 69.5195 51.8125 66.543 49.75C63.5898 47.6875 61.6562 44.8867 60.7422 41.3477ZM114.145 0.460938V19.4102C117.332 15.6836 121.141 13.8203 125.57 13.8203C127.844 13.8203 129.895 14.2422 131.723 15.0859C133.551 15.9297 134.922 17.0078 135.836 18.3203C136.773 19.6328 137.406 21.0859 137.734 22.6797C138.086 24.2734 138.262 26.7461 138.262 30.0977V52H128.383V32.2773C128.383 28.3633 128.195 25.8789 127.82 24.8242C127.445 23.7695 126.777 22.9375 125.816 22.3281C124.879 21.6953 123.695 21.3789 122.266 21.3789C120.625 21.3789 119.16 21.7773 117.871 22.5742C116.582 23.3711 115.633 24.5781 115.023 26.1953C114.438 27.7891 114.145 30.1562 114.145 33.2969V52H104.266V0.460938H114.145ZM155.699 26.0547L146.734 24.4375C147.742 20.8281 149.477 18.1562 151.938 16.4219C154.398 14.6875 158.055 13.8203 162.906 13.8203C167.312 13.8203 170.594 14.3477 172.75 15.4023C174.906 16.4336 176.418 17.7578 177.285 19.375C178.176 20.9688 178.621 23.9102 178.621 28.1992L178.516 39.7305C178.516 43.0117 178.668 45.4375 178.973 47.0078C179.301 48.5547 179.898 50.2188 180.766 52H170.992C170.734 51.3438 170.418 50.3711 170.043 49.082C169.879 48.4961 169.762 48.1094 169.691 47.9219C168.004 49.5625 166.199 50.793 164.277 51.6133C162.355 52.4336 160.305 52.8438 158.125 52.8438C154.281 52.8438 151.246 51.8008 149.02 49.7148C146.816 47.6289 145.715 44.9922 145.715 41.8047C145.715 39.6953 146.219 37.8203 147.227 36.1797C148.234 34.5156 149.641 33.25 151.445 32.3828C153.273 31.4922 155.898 30.7188 159.32 30.0625C163.938 29.1953 167.137 28.3867 168.918 27.6367V26.6523C168.918 24.7539 168.449 23.4062 167.512 22.6094C166.574 21.7891 164.805 21.3789 162.203 21.3789C160.445 21.3789 159.074 21.7305 158.09 22.4336C157.105 23.1133 156.309 24.3203 155.699 26.0547ZM168.918 34.0703C167.652 34.4922 165.648 34.9961 162.906 35.582C160.164 36.168 158.371 36.7422 157.527 37.3047C156.238 38.2188 155.594 39.3789 155.594 40.7852C155.594 42.168 156.109 43.3633 157.141 44.3711C158.172 45.3789 159.484 45.8828 161.078 45.8828C162.859 45.8828 164.559 45.2969 166.176 44.125C167.371 43.2344 168.156 42.1445 168.531 40.8555C168.789 40.0117 168.918 38.4062 168.918 36.0391V34.0703ZM222.355 52H212.477V32.9453C212.477 28.9141 212.266 26.3125 211.844 25.1406C211.422 23.9453 210.73 23.0195 209.77 22.3633C208.832 21.707 207.695 21.3789 206.359 21.3789C204.648 21.3789 203.113 21.8477 201.754 22.7852C200.395 23.7227 199.457 24.9648 198.941 26.5117C198.449 28.0586 198.203 30.918 198.203 35.0898V52H188.324V14.6641H197.5V20.1484C200.758 15.9297 204.859 13.8203 209.805 13.8203C211.984 13.8203 213.977 14.2187 215.781 15.0156C217.586 15.7891 218.945 16.7852 219.859 18.0039C220.797 19.2227 221.441 20.6055 221.793 22.1523C222.168 23.6992 222.355 25.9141 222.355 28.7969V52ZM249.531 14.6641V22.5391H242.781V37.5859C242.781 40.6328 242.84 42.4141 242.957 42.9297C243.098 43.4219 243.391 43.832 243.836 44.1602C244.305 44.4883 244.867 44.6523 245.523 44.6523C246.438 44.6523 247.762 44.3359 249.496 43.7031L250.34 51.3672C248.043 52.3516 245.441 52.8438 242.535 52.8438C240.754 52.8438 239.148 52.5508 237.719 51.9648C236.289 51.3555 235.234 50.582 234.555 49.6445C233.898 48.6836 233.441 47.3945 233.184 45.7773C232.973 44.6289 232.867 42.3086 232.867 38.8164V22.5391H228.332V14.6641H232.867V7.24609L242.781 1.48047V14.6641H249.531ZM276.004 52V0.460938H285.883V19.0234C288.93 15.5547 292.539 13.8203 296.711 13.8203C301.258 13.8203 305.02 15.4727 307.996 18.7773C310.973 22.0586 312.461 26.7812 312.461 32.9453C312.461 39.3203 310.938 44.2305 307.891 47.6758C304.867 51.1211 301.188 52.8438 296.852 52.8438C294.719 52.8438 292.609 52.3164 290.523 51.2617C288.461 50.1836 286.68 48.6016 285.18 46.5156V52H276.004ZM285.812 32.5234C285.812 36.3906 286.422 39.25 287.641 41.1016C289.352 43.7266 291.625 45.0391 294.461 45.0391C296.641 45.0391 298.492 44.1133 300.016 42.2617C301.562 40.3867 302.336 37.4453 302.336 33.4375C302.336 29.1719 301.562 26.1016 300.016 24.2266C298.469 22.3281 296.488 21.3789 294.074 21.3789C291.707 21.3789 289.738 22.3047 288.168 24.1562C286.598 25.9844 285.812 28.7734 285.812 32.5234ZM327.824 26.0547L318.859 24.4375C319.867 20.8281 321.602 18.1562 324.062 16.4219C326.523 14.6875 330.18 13.8203 335.031 13.8203C339.438 13.8203 342.719 14.3477 344.875 15.4023C347.031 16.4336 348.543 17.7578 349.41 19.375C350.301 20.9688 350.746 23.9102 350.746 28.1992L350.641 39.7305C350.641 43.0117 350.793 45.4375 351.098 47.0078C351.426 48.5547 352.023 50.2188 352.891 52H343.117C342.859 51.3438 342.543 50.3711 342.168 49.082C342.004 48.4961 341.887 48.1094 341.816 47.9219C340.129 49.5625 338.324 50.793 336.402 51.6133C334.48 52.4336 332.43 52.8438 330.25 52.8438C326.406 52.8438 323.371 51.8008 321.145 49.7148C318.941 47.6289 317.84 44.9922 317.84 41.8047C317.84 39.6953 318.344 37.8203 319.352 36.1797C320.359 34.5156 321.766 33.25 323.57 32.3828C325.398 31.4922 328.023 30.7188 331.445 30.0625C336.062 29.1953 339.262 28.3867 341.043 27.6367V26.6523C341.043 24.7539 340.574 23.4062 339.637 22.6094C338.699 21.7891 336.93 21.3789 334.328 21.3789C332.57 21.3789 331.199 21.7305 330.215 22.4336C329.23 23.1133 328.434 24.3203 327.824 26.0547ZM341.043 34.0703C339.777 34.4922 337.773 34.9961 335.031 35.582C332.289 36.168 330.496 36.7422 329.652 37.3047C328.363 38.2188 327.719 39.3789 327.719 40.7852C327.719 42.168 328.234 43.3633 329.266 44.3711C330.297 45.3789 331.609 45.8828 333.203 45.8828C334.984 45.8828 336.684 45.2969 338.301 44.125C339.496 43.2344 340.281 42.1445 340.656 40.8555C340.914 40.0117 341.043 38.4062 341.043 36.0391V34.0703ZM360.52 52V0.460938H370.398V52H360.52ZM387.941 26.0547L378.977 24.4375C379.984 20.8281 381.719 18.1562 384.18 16.4219C386.641 14.6875 390.297 13.8203 395.148 13.8203C399.555 13.8203 402.836 14.3477 404.992 15.4023C407.148 16.4336 408.66 17.7578 409.527 19.375C410.418 20.9688 410.863 23.9102 410.863 28.1992L410.758 39.7305C410.758 43.0117 410.91 45.4375 411.215 47.0078C411.543 48.5547 412.141 50.2188 413.008 52H403.234C402.977 51.3438 402.66 50.3711 402.285 49.082C402.121 48.4961 402.004 48.1094 401.934 47.9219C400.246 49.5625 398.441 50.793 396.52 51.6133C394.598 52.4336 392.547 52.8438 390.367 52.8438C386.523 52.8438 383.488 51.8008 381.262 49.7148C379.059 47.6289 377.957 44.9922 377.957 41.8047C377.957 39.6953 378.461 37.8203 379.469 36.1797C380.477 34.5156 381.883 33.25 383.688 32.3828C385.516 31.4922 388.141 30.7188 391.562 30.0625C396.18 29.1953 399.379 28.3867 401.16 27.6367V26.6523C401.16 24.7539 400.691 23.4062 399.754 22.6094C398.816 21.7891 397.047 21.3789 394.445 21.3789C392.688 21.3789 391.316 21.7305 390.332 22.4336C389.348 23.1133 388.551 24.3203 387.941 26.0547ZM401.16 34.0703C399.895 34.4922 397.891 34.9961 395.148 35.582C392.406 36.168 390.613 36.7422 389.77 37.3047C388.48 38.2188 387.836 39.3789 387.836 40.7852C387.836 42.168 388.352 43.3633 389.383 44.3711C390.414 45.3789 391.727 45.8828 393.32 45.8828C395.102 45.8828 396.801 45.2969 398.418 44.125C399.613 43.2344 400.398 42.1445 400.773 40.8555C401.031 40.0117 401.16 38.4062 401.16 36.0391V34.0703ZM420.426 9.60156V0.460938H430.305V9.60156H420.426ZM430.305 14.6641V50.8398C430.305 55.5977 429.988 58.9492 429.355 60.8945C428.746 62.8633 427.551 64.3984 425.77 65.5C424.012 66.6016 421.762 67.1523 419.02 67.1523C418.035 67.1523 416.969 67.0586 415.82 66.8711C414.695 66.707 413.477 66.4492 412.164 66.0977L413.887 57.6602C414.355 57.7539 414.801 57.8242 415.223 57.8711C415.621 57.9414 415.996 57.9766 416.348 57.9766C417.355 57.9766 418.176 57.7539 418.809 57.3086C419.465 56.8867 419.898 56.3711 420.109 55.7617C420.32 55.1523 420.426 53.3242 420.426 50.2773V14.6641H430.305ZM440.676 9.60156V0.460938H450.555V9.60156H440.676ZM440.676 52V14.6641H450.555V52H440.676Z" fill="black"/>
</svg>
