<svg width="1374" height="245" viewBox="0 0 1374 245" fill="none" xmlns="http://www.w3.org/2000/svg">
<g clip-path="url(#clip0_904_205)">
<path d="M88.6143 78.4165C89.2676 81.0295 89.5942 84.2957 89.5942 88.2152C89.5942 91.9713 89.2676 95.2375 88.6143 98.0138C89.2676 100.627 89.5942 103.893 89.5942 107.812C89.5942 111.569 89.2676 114.835 88.6143 117.611C89.2676 120.224 89.5942 123.49 89.5942 127.41C89.5942 131.166 89.2676 134.432 88.6143 137.208C89.2676 139.821 89.5942 143.087 89.5942 147.007C89.5942 150.763 89.2676 154.029 88.6143 156.806C89.2676 159.418 89.5942 162.685 89.5942 166.604C89.5942 170.36 89.2676 173.626 88.6143 176.403C89.2676 179.016 89.5942 182.282 89.5942 186.201C89.5942 189.958 89.2676 193.224 88.6143 196H69.0171C68.3639 193.224 68.0372 189.958 68.0372 186.201C68.0372 182.282 68.3639 179.016 69.0171 176.403H56.7688C56.1156 173.626 55.789 170.36 55.789 166.604C55.789 162.685 56.1156 159.418 56.7688 156.806H49.4199C48.7666 154.029 48.44 150.763 48.44 147.007C48.44 143.087 48.7666 139.821 49.4199 137.208H39.6212C38.968 134.432 38.6414 131.166 38.6414 127.41C38.6414 123.49 38.968 120.224 39.6212 117.611H29.8226C30.4759 120.224 30.8025 123.49 30.8025 127.41C30.8025 131.166 30.4759 134.432 29.8226 137.208C30.4759 139.821 30.8025 143.087 30.8025 147.007C30.8025 150.763 30.4759 154.029 29.8226 156.806C30.4759 159.418 30.8025 162.685 30.8025 166.604C30.8025 170.36 30.4759 173.626 29.8226 176.403C30.4759 179.016 30.8025 182.282 30.8025 186.201C30.8025 189.958 30.4759 193.224 29.8226 196H10.2254C9.57214 193.224 9.24552 189.958 9.24552 186.201C9.24552 182.282 9.57214 179.016 10.2254 176.403C9.57214 173.626 9.24552 170.36 9.24552 166.604C9.24552 162.685 9.57214 159.418 10.2254 156.806C9.57214 154.029 9.24552 150.763 9.24552 147.007C9.24552 143.087 9.57214 139.821 10.2254 137.208C9.57214 134.432 9.24552 131.166 9.24552 127.41C9.24552 123.49 9.57214 120.224 10.2254 117.611C9.57214 114.835 9.24552 111.569 9.24552 107.812C9.24552 103.893 9.57214 100.627 10.2254 98.0138C9.57214 95.2375 9.24552 91.9713 9.24552 88.2152C9.24552 84.2957 9.57214 81.0295 10.2254 78.4165C9.57214 75.6403 9.24552 72.3741 9.24552 68.6179C9.24552 64.6985 9.57214 61.4323 10.2254 58.8193H34.7219C35.3752 61.4323 35.7018 64.6985 35.7018 68.6179C35.7018 72.3741 35.3752 75.6403 34.7219 78.4165H42.0709C42.7241 81.0295 43.0508 84.2957 43.0508 88.2152C43.0508 91.9713 42.7241 95.2375 42.0709 98.0138H49.4199C50.0731 100.627 50.3997 103.893 50.3997 107.812C50.3997 111.569 50.0731 114.835 49.4199 117.611H59.2185C59.8717 120.224 60.1983 123.49 60.1983 127.41C60.1983 131.166 59.8717 134.432 59.2185 137.208H69.0171C68.3639 134.432 68.0372 131.166 68.0372 127.41C68.0372 123.49 68.3639 120.224 69.0171 117.611C68.3639 114.835 68.0372 111.569 68.0372 107.812C68.0372 103.893 68.3639 100.627 69.0171 98.0138C68.3639 95.2375 68.0372 91.9713 68.0372 88.2152C68.0372 84.2957 68.3639 81.0295 69.0171 78.4165C68.3639 75.6403 68.0372 72.3741 68.0372 68.6179C68.0372 64.6985 68.3639 61.4323 69.0171 58.8193H88.6143C89.2676 61.4323 89.5942 64.6985 89.5942 68.6179C89.5942 72.3741 89.2676 75.6403 88.6143 78.4165ZM171.998 176.403C172.652 179.016 172.978 182.282 172.978 186.201C172.978 189.958 172.652 193.224 171.998 196H123.005C122.352 193.224 122.025 189.958 122.025 186.201C122.025 182.282 122.352 179.016 123.005 176.403H137.703C137.05 173.626 136.723 170.36 136.723 166.604C136.723 162.685 137.05 159.418 137.703 156.806C137.05 154.029 136.723 150.763 136.723 147.007C136.723 143.087 137.05 139.821 137.703 137.208C137.05 134.432 136.723 131.166 136.723 127.41C136.723 123.49 137.05 120.224 137.703 117.611C137.05 114.835 136.723 111.569 136.723 107.812C136.723 103.893 137.05 100.627 137.703 98.0138C137.05 95.2375 136.723 91.9713 136.723 88.2152C136.723 84.2957 137.05 81.0295 137.703 78.4165H123.005C122.352 75.6403 122.025 72.3741 122.025 68.6179C122.025 64.6985 122.352 61.4323 123.005 58.8193H171.998C172.652 61.4323 172.978 64.6985 172.978 68.6179C172.978 72.3741 172.652 75.6403 171.998 78.4165H157.3C157.954 81.0295 158.28 84.2957 158.28 88.2152C158.28 91.9713 157.954 95.2375 157.3 98.0138C157.954 100.627 158.28 103.893 158.28 107.812C158.28 111.569 157.954 114.835 157.3 117.611C157.954 120.224 158.28 123.49 158.28 127.41C158.28 131.166 157.954 134.432 157.3 137.208C157.954 139.821 158.28 143.087 158.28 147.007C158.28 150.763 157.954 154.029 157.3 156.806C157.954 159.418 158.28 162.685 158.28 166.604C158.28 170.36 157.954 173.626 157.3 176.403H171.998ZM284.778 137.208C285.431 139.821 285.758 143.087 285.758 147.007C285.758 150.763 285.431 154.029 284.778 156.806C285.431 159.418 285.758 162.685 285.758 166.604C285.758 170.36 285.431 173.626 284.778 176.403H274.98C275.633 179.016 275.959 182.282 275.959 186.201C275.959 189.958 275.633 193.224 274.98 196H216.188C215.535 193.224 215.208 189.958 215.208 186.201C215.208 182.282 215.535 179.016 216.188 176.403H206.389C205.736 173.626 205.409 170.36 205.409 166.604C205.409 162.685 205.736 159.418 206.389 156.806H225.986C226.64 159.418 226.966 162.685 226.966 166.604C226.966 170.36 226.64 173.626 225.986 176.403H265.181C264.528 173.626 264.201 170.36 264.201 166.604C264.201 162.685 264.528 159.418 265.181 156.806C264.528 154.029 264.201 150.763 264.201 147.007C264.201 143.087 264.528 139.821 265.181 137.208H216.188C215.535 134.432 215.208 131.166 215.208 127.41C215.208 123.49 215.535 120.224 216.188 117.611H206.389C205.736 114.835 205.409 111.569 205.409 107.812C205.409 103.893 205.736 100.627 206.389 98.0138C205.736 95.2375 205.409 91.9713 205.409 88.2152C205.409 84.2957 205.736 81.0295 206.389 78.4165H216.188C215.535 75.6403 215.208 72.3741 215.208 68.6179C215.208 64.6985 215.535 61.4323 216.188 58.8193H274.98C275.633 61.4323 275.959 64.6985 275.959 68.6179C275.959 72.3741 275.633 75.6403 274.98 78.4165H284.778C285.431 81.0295 285.758 84.2957 285.758 88.2152C285.758 91.9713 285.431 95.2375 284.778 98.0138H265.181C264.528 95.2375 264.201 91.9713 264.201 88.2152C264.201 84.2957 264.528 81.0295 265.181 78.4165H225.986C226.64 81.0295 226.966 84.2957 226.966 88.2152C226.966 91.9713 226.64 95.2375 225.986 98.0138C226.64 100.627 226.966 103.893 226.966 107.812C226.966 111.569 226.64 114.835 225.986 117.611H274.98C275.633 120.224 275.959 123.49 275.959 127.41C275.959 131.166 275.633 134.432 274.98 137.208H284.778ZM382.86 78.4165C383.513 81.0295 383.84 84.2957 383.84 88.2152C383.84 91.9713 383.513 95.2375 382.86 98.0138C383.513 100.627 383.84 103.893 383.84 107.812C383.84 111.569 383.513 114.835 382.86 117.611C383.513 120.224 383.84 123.49 383.84 127.41C383.84 131.166 383.513 134.432 382.86 137.208C383.513 139.821 383.84 143.087 383.84 147.007C383.84 150.763 383.513 154.029 382.86 156.806C383.513 159.418 383.84 162.685 383.84 166.604C383.84 170.36 383.513 173.626 382.86 176.403C383.513 179.016 383.84 182.282 383.84 186.201C383.84 189.958 383.513 193.224 382.86 196H363.263C362.61 193.224 362.283 189.958 362.283 186.201C362.283 182.282 362.61 179.016 363.263 176.403C362.61 173.626 362.283 170.36 362.283 166.604C362.283 162.685 362.61 159.418 363.263 156.806C362.61 154.029 362.283 150.763 362.283 147.007C362.283 143.087 362.61 139.821 363.263 137.208H324.068C324.722 139.821 325.048 143.087 325.048 147.007C325.048 150.763 324.722 154.029 324.068 156.806C324.722 159.418 325.048 162.685 325.048 166.604C325.048 170.36 324.722 173.626 324.068 176.403C324.722 179.016 325.048 182.282 325.048 186.201C325.048 189.958 324.722 193.224 324.068 196H304.471C303.818 193.224 303.491 189.958 303.491 186.201C303.491 182.282 303.818 179.016 304.471 176.403C303.818 173.626 303.491 170.36 303.491 166.604C303.491 162.685 303.818 159.418 304.471 156.806C303.818 154.029 303.491 150.763 303.491 147.007C303.491 143.087 303.818 139.821 304.471 137.208C303.818 134.432 303.491 131.166 303.491 127.41C303.491 123.49 303.818 120.224 304.471 117.611C303.818 114.835 303.491 111.569 303.491 107.812C303.491 103.893 303.818 100.627 304.471 98.0138C303.818 95.2375 303.491 91.9713 303.491 88.2152C303.491 84.2957 303.818 81.0295 304.471 78.4165C303.818 75.6403 303.491 72.3741 303.491 68.6179C303.491 64.6985 303.818 61.4323 304.471 58.8193H324.068C324.722 61.4323 325.048 64.6985 325.048 68.6179C325.048 72.3741 324.722 75.6403 324.068 78.4165C324.722 81.0295 325.048 84.2957 325.048 88.2152C325.048 91.9713 324.722 95.2375 324.068 98.0138C324.722 100.627 325.048 103.893 325.048 107.812C325.048 111.569 324.722 114.835 324.068 117.611H363.263C362.61 114.835 362.283 111.569 362.283 107.812C362.283 103.893 362.61 100.627 363.263 98.0138C362.61 95.2375 362.283 91.9713 362.283 88.2152C362.283 84.2957 362.61 81.0295 363.263 78.4165C362.61 75.6403 362.283 72.3741 362.283 68.6179C362.283 64.6985 362.61 61.4323 363.263 58.8193H382.86C383.513 61.4323 383.84 64.6985 383.84 68.6179C383.84 72.3741 383.513 75.6403 382.86 78.4165ZM481.922 166.604C481.922 170.36 481.595 173.626 480.942 176.403C481.595 179.016 481.922 182.282 481.922 186.201C481.922 189.958 481.595 193.224 480.942 196H461.345C460.691 193.224 460.365 189.958 460.365 186.201C460.365 182.282 460.691 179.016 461.345 176.403C460.691 173.626 460.365 170.36 460.365 166.604C460.365 162.685 460.691 159.418 461.345 156.806H422.15C422.803 159.418 423.13 162.685 423.13 166.604C423.13 170.36 422.803 173.626 422.15 176.403C422.803 179.016 423.13 182.282 423.13 186.201C423.13 189.958 422.803 193.224 422.15 196H402.553C401.9 193.224 401.573 189.958 401.573 186.201C401.573 182.282 401.9 179.016 402.553 176.403C401.9 173.626 401.573 170.36 401.573 166.604C401.573 162.685 401.9 159.418 402.553 156.806H409.902C409.249 154.029 408.922 150.763 408.922 147.007C408.922 143.087 409.249 139.821 409.902 137.208C409.249 134.432 408.922 131.166 408.922 127.41C408.922 123.49 409.249 120.224 409.902 117.611H414.801C414.148 114.835 413.821 111.569 413.821 107.812C413.821 103.893 414.148 100.627 414.801 98.0138H422.15C421.497 95.2375 421.17 91.9713 421.17 88.2152C421.17 84.2957 421.497 81.0295 422.15 78.4165H427.05C426.396 75.6403 426.07 72.3741 426.07 68.6179C426.07 64.6985 426.396 61.4323 427.05 58.8193H456.445C457.099 61.4323 457.425 64.6985 457.425 68.6179C457.425 72.3741 457.099 75.6403 456.445 78.4165H461.345C461.998 81.0295 462.325 84.2957 462.325 88.2152C462.325 91.9713 461.998 95.2375 461.345 98.0138H468.694C469.347 100.627 469.674 103.893 469.674 107.812C469.674 111.569 469.347 114.835 468.694 117.611H473.593C474.246 120.224 474.573 123.49 474.573 127.41C474.573 131.166 474.246 134.432 473.593 137.208C474.246 139.821 474.573 143.087 474.573 147.007C474.573 150.763 474.246 154.029 473.593 156.806H480.942C481.595 159.418 481.922 162.685 481.922 166.604ZM453.996 137.208C453.342 134.432 453.016 131.166 453.016 127.41C453.016 123.49 453.342 120.224 453.996 117.611H449.096C448.443 114.835 448.117 111.569 448.117 107.812C448.117 103.893 448.443 100.627 449.096 98.0138H434.398C435.052 100.627 435.378 103.893 435.378 107.812C435.378 111.569 435.052 114.835 434.398 117.611H429.499C430.152 120.224 430.479 123.49 430.479 127.41C430.479 131.166 430.152 134.432 429.499 137.208H453.996ZM579.024 78.4165C579.677 81.0295 580.004 84.2957 580.004 88.2152C580.004 91.9713 579.677 95.2375 579.024 98.0138C579.677 100.627 580.004 103.893 580.004 107.812C580.004 111.569 579.677 114.835 579.024 117.611C579.677 120.224 580.004 123.49 580.004 127.41C580.004 131.166 579.677 134.432 579.024 137.208C579.677 139.821 580.004 143.087 580.004 147.007C580.004 150.763 579.677 154.029 579.024 156.806C579.677 159.418 580.004 162.685 580.004 166.604C580.004 170.36 579.677 173.626 579.024 176.403C579.677 179.016 580.004 182.282 580.004 186.201C580.004 189.958 579.677 193.224 579.024 196H559.427C558.773 193.224 558.447 189.958 558.447 186.201C558.447 182.282 558.773 179.016 559.427 176.403H547.178C546.525 173.626 546.198 170.36 546.198 166.604C546.198 162.685 546.525 159.418 547.178 156.806H539.829C539.176 154.029 538.849 150.763 538.849 147.007C538.849 143.087 539.176 139.821 539.829 137.208H530.031C529.377 134.432 529.051 131.166 529.051 127.41C529.051 123.49 529.377 120.224 530.031 117.611H520.232C520.885 120.224 521.212 123.49 521.212 127.41C521.212 131.166 520.885 134.432 520.232 137.208C520.885 139.821 521.212 143.087 521.212 147.007C521.212 150.763 520.885 154.029 520.232 156.806C520.885 159.418 521.212 162.685 521.212 166.604C521.212 170.36 520.885 173.626 520.232 176.403C520.885 179.016 521.212 182.282 521.212 186.201C521.212 189.958 520.885 193.224 520.232 196H500.635C499.982 193.224 499.655 189.958 499.655 186.201C499.655 182.282 499.982 179.016 500.635 176.403C499.982 173.626 499.655 170.36 499.655 166.604C499.655 162.685 499.982 159.418 500.635 156.806C499.982 154.029 499.655 150.763 499.655 147.007C499.655 143.087 499.982 139.821 500.635 137.208C499.982 134.432 499.655 131.166 499.655 127.41C499.655 123.49 499.982 120.224 500.635 117.611C499.982 114.835 499.655 111.569 499.655 107.812C499.655 103.893 499.982 100.627 500.635 98.0138C499.982 95.2375 499.655 91.9713 499.655 88.2152C499.655 84.2957 499.982 81.0295 500.635 78.4165C499.982 75.6403 499.655 72.3741 499.655 68.6179C499.655 64.6985 499.982 61.4323 500.635 58.8193H525.131C525.785 61.4323 526.111 64.6985 526.111 68.6179C526.111 72.3741 525.785 75.6403 525.131 78.4165H532.48C533.134 81.0295 533.46 84.2957 533.46 88.2152C533.46 91.9713 533.134 95.2375 532.48 98.0138H539.829C540.483 100.627 540.809 103.893 540.809 107.812C540.809 111.569 540.483 114.835 539.829 117.611H549.628C550.281 120.224 550.608 123.49 550.608 127.41C550.608 131.166 550.281 134.432 549.628 137.208H559.427C558.773 134.432 558.447 131.166 558.447 127.41C558.447 123.49 558.773 120.224 559.427 117.611C558.773 114.835 558.447 111.569 558.447 107.812C558.447 103.893 558.773 100.627 559.427 98.0138C558.773 95.2375 558.447 91.9713 558.447 88.2152C558.447 84.2957 558.773 81.0295 559.427 78.4165C558.773 75.6403 558.447 72.3741 558.447 68.6179C558.447 64.6985 558.773 61.4323 559.427 58.8193H579.024C579.677 61.4323 580.004 64.6985 580.004 68.6179C580.004 72.3741 579.677 75.6403 579.024 78.4165ZM678.086 68.6179C678.086 72.3741 677.759 75.6403 677.106 78.4165H647.71C648.363 81.0295 648.69 84.2957 648.69 88.2152C648.69 91.9713 648.363 95.2375 647.71 98.0138C648.363 100.627 648.69 103.893 648.69 107.812C648.69 111.569 648.363 114.835 647.71 117.611C648.363 120.224 648.69 123.49 648.69 127.41C648.69 131.166 648.363 134.432 647.71 137.208C648.363 139.821 648.69 143.087 648.69 147.007C648.69 150.763 648.363 154.029 647.71 156.806C648.363 159.418 648.69 162.685 648.69 166.604C648.69 170.36 648.363 173.626 647.71 176.403C648.363 179.016 648.69 182.282 648.69 186.201C648.69 189.958 648.363 193.224 647.71 196H628.113C627.459 193.224 627.133 189.958 627.133 186.201C627.133 182.282 627.459 179.016 628.113 176.403C627.459 173.626 627.133 170.36 627.133 166.604C627.133 162.685 627.459 159.418 628.113 156.806C627.459 154.029 627.133 150.763 627.133 147.007C627.133 143.087 627.459 139.821 628.113 137.208C627.459 134.432 627.133 131.166 627.133 127.41C627.133 123.49 627.459 120.224 628.113 117.611C627.459 114.835 627.133 111.569 627.133 107.812C627.133 103.893 627.459 100.627 628.113 98.0138C627.459 95.2375 627.133 91.9713 627.133 88.2152C627.133 84.2957 627.459 81.0295 628.113 78.4165H598.717C598.063 75.6403 597.737 72.3741 597.737 68.6179C597.737 64.6985 598.063 61.4323 598.717 58.8193H677.106C677.759 61.4323 678.086 64.6985 678.086 68.6179ZM874.249 107.812C874.249 111.569 873.923 114.835 873.269 117.611H863.471C864.124 120.224 864.451 123.49 864.451 127.41C864.451 131.166 864.124 134.432 863.471 137.208H873.269C873.923 139.821 874.249 143.087 874.249 147.007C874.249 150.763 873.923 154.029 873.269 156.806C873.923 159.418 874.249 162.685 874.249 166.604C874.249 170.36 873.923 173.626 873.269 176.403H863.471C864.124 179.016 864.451 182.282 864.451 186.201C864.451 189.958 864.124 193.224 863.471 196H794.881C794.227 193.224 793.901 189.958 793.901 186.201C793.901 182.282 794.227 179.016 794.881 176.403C794.227 173.626 793.901 170.36 793.901 166.604C793.901 162.685 794.227 159.418 794.881 156.806C794.227 154.029 793.901 150.763 793.901 147.007C793.901 143.087 794.227 139.821 794.881 137.208C794.227 134.432 793.901 131.166 793.901 127.41C793.901 123.49 794.227 120.224 794.881 117.611C794.227 114.835 793.901 111.569 793.901 107.812C793.901 103.893 794.227 100.627 794.881 98.0138C794.227 95.2375 793.901 91.9713 793.901 88.2152C793.901 84.2957 794.227 81.0295 794.881 78.4165C794.227 75.6403 793.901 72.3741 793.901 68.6179C793.901 64.6985 794.227 61.4323 794.881 58.8193H863.471C864.124 61.4323 864.451 64.6985 864.451 68.6179C864.451 72.3741 864.124 75.6403 863.471 78.4165H873.269C873.923 81.0295 874.249 84.2957 874.249 88.2152C874.249 91.9713 873.923 95.2375 873.269 98.0138C873.923 100.627 874.249 103.893 874.249 107.812ZM853.672 117.611C853.019 114.835 852.692 111.569 852.692 107.812C852.692 103.893 853.019 100.627 853.672 98.0138C853.019 95.2375 852.692 91.9713 852.692 88.2152C852.692 84.2957 853.019 81.0295 853.672 78.4165H814.478C815.131 81.0295 815.458 84.2957 815.458 88.2152C815.458 91.9713 815.131 95.2375 814.478 98.0138C815.131 100.627 815.458 103.893 815.458 107.812C815.458 111.569 815.131 114.835 814.478 117.611H853.672ZM853.672 156.806C853.019 154.029 852.692 150.763 852.692 147.007C852.692 143.087 853.019 139.821 853.672 137.208H814.478C815.131 139.821 815.458 143.087 815.458 147.007C815.458 150.763 815.131 154.029 814.478 156.806C815.131 159.418 815.458 162.685 815.458 166.604C815.458 170.36 815.131 173.626 814.478 176.403H853.672C853.019 173.626 852.692 170.36 852.692 166.604C852.692 162.685 853.019 159.418 853.672 156.806ZM972.331 166.604C972.331 170.36 972.005 173.626 971.351 176.403C972.005 179.016 972.331 182.282 972.331 186.201C972.331 189.958 972.005 193.224 971.351 196H951.754C951.101 193.224 950.774 189.958 950.774 186.201C950.774 182.282 951.101 179.016 951.754 176.403C951.101 173.626 950.774 170.36 950.774 166.604C950.774 162.685 951.101 159.418 951.754 156.806H912.56C913.213 159.418 913.54 162.685 913.54 166.604C913.54 170.36 913.213 173.626 912.56 176.403C913.213 179.016 913.54 182.282 913.54 186.201C913.54 189.958 913.213 193.224 912.56 196H892.962C892.309 193.224 891.983 189.958 891.983 186.201C891.983 182.282 892.309 179.016 892.962 176.403C892.309 173.626 891.983 170.36 891.983 166.604C891.983 162.685 892.309 159.418 892.962 156.806H900.311C899.658 154.029 899.332 150.763 899.332 147.007C899.332 143.087 899.658 139.821 900.311 137.208C899.658 134.432 899.332 131.166 899.332 127.41C899.332 123.49 899.658 120.224 900.311 117.611H905.211C904.557 114.835 904.231 111.569 904.231 107.812C904.231 103.893 904.557 100.627 905.211 98.0138H912.56C911.906 95.2375 911.58 91.9713 911.58 88.2152C911.58 84.2957 911.906 81.0295 912.56 78.4165H917.459C916.806 75.6403 916.479 72.3741 916.479 68.6179C916.479 64.6985 916.806 61.4323 917.459 58.8193H946.855C947.508 61.4323 947.835 64.6985 947.835 68.6179C947.835 72.3741 947.508 75.6403 946.855 78.4165H951.754C952.407 81.0295 952.734 84.2957 952.734 88.2152C952.734 91.9713 952.407 95.2375 951.754 98.0138H959.103C959.756 100.627 960.083 103.893 960.083 107.812C960.083 111.569 959.756 114.835 959.103 117.611H964.002C964.656 120.224 964.982 123.49 964.982 127.41C964.982 131.166 964.656 134.432 964.002 137.208C964.656 139.821 964.982 143.087 964.982 147.007C964.982 150.763 964.656 154.029 964.002 156.806H971.351C972.005 159.418 972.331 162.685 972.331 166.604ZM944.405 137.208C943.752 134.432 943.425 131.166 943.425 127.41C943.425 123.49 943.752 120.224 944.405 117.611H939.506C938.853 114.835 938.526 111.569 938.526 107.812C938.526 103.893 938.853 100.627 939.506 98.0138H924.808C925.461 100.627 925.788 103.893 925.788 107.812C925.788 111.569 925.461 114.835 924.808 117.611H919.909C920.562 120.224 920.889 123.49 920.889 127.41C920.889 131.166 920.562 134.432 919.909 137.208H944.405ZM1069.43 176.403C1070.09 179.016 1070.41 182.282 1070.41 186.201C1070.41 189.958 1070.09 193.224 1069.43 196H1000.84C1000.19 193.224 999.863 189.958 999.863 186.201C999.863 182.282 1000.19 179.016 1000.84 176.403C1000.19 173.626 999.863 170.36 999.863 166.604C999.863 162.685 1000.19 159.418 1000.84 156.806C1000.19 154.029 999.863 150.763 999.863 147.007C999.863 143.087 1000.19 139.821 1000.84 137.208C1000.19 134.432 999.863 131.166 999.863 127.41C999.863 123.49 1000.19 120.224 1000.84 117.611C1000.19 114.835 999.863 111.569 999.863 107.812C999.863 103.893 1000.19 100.627 1000.84 98.0138C1000.19 95.2375 999.863 91.9713 999.863 88.2152C999.863 84.2957 1000.19 81.0295 1000.84 78.4165C1000.19 75.6403 999.863 72.3741 999.863 68.6179C999.863 64.6985 1000.19 61.4323 1000.84 58.8193H1020.44C1021.09 61.4323 1021.42 64.6985 1021.42 68.6179C1021.42 72.3741 1021.09 75.6403 1020.44 78.4165C1021.09 81.0295 1021.42 84.2957 1021.42 88.2152C1021.42 91.9713 1021.09 95.2375 1020.44 98.0138C1021.09 100.627 1021.42 103.893 1021.42 107.812C1021.42 111.569 1021.09 114.835 1020.44 117.611C1021.09 120.224 1021.42 123.49 1021.42 127.41C1021.42 131.166 1021.09 134.432 1020.44 137.208C1021.09 139.821 1021.42 143.087 1021.42 147.007C1021.42 150.763 1021.09 154.029 1020.44 156.806C1021.09 159.418 1021.42 162.685 1021.42 166.604C1021.42 170.36 1021.09 173.626 1020.44 176.403H1069.43ZM1168.5 166.604C1168.5 170.36 1168.17 173.626 1167.52 176.403C1168.17 179.016 1168.5 182.282 1168.5 186.201C1168.5 189.958 1168.17 193.224 1167.52 196H1147.92C1147.26 193.224 1146.94 189.958 1146.94 186.201C1146.94 182.282 1147.26 179.016 1147.92 176.403C1147.26 173.626 1146.94 170.36 1146.94 166.604C1146.94 162.685 1147.26 159.418 1147.92 156.806H1108.72C1109.38 159.418 1109.7 162.685 1109.7 166.604C1109.7 170.36 1109.38 173.626 1108.72 176.403C1109.38 179.016 1109.7 182.282 1109.7 186.201C1109.7 189.958 1109.38 193.224 1108.72 196H1089.13C1088.47 193.224 1088.15 189.958 1088.15 186.201C1088.15 182.282 1088.47 179.016 1089.13 176.403C1088.47 173.626 1088.15 170.36 1088.15 166.604C1088.15 162.685 1088.47 159.418 1089.13 156.806H1096.48C1095.82 154.029 1095.5 150.763 1095.5 147.007C1095.5 143.087 1095.82 139.821 1096.48 137.208C1095.82 134.432 1095.5 131.166 1095.5 127.41C1095.5 123.49 1095.82 120.224 1096.48 117.611H1101.37C1100.72 114.835 1100.39 111.569 1100.39 107.812C1100.39 103.893 1100.72 100.627 1101.37 98.0138H1108.72C1108.07 95.2375 1107.74 91.9713 1107.74 88.2152C1107.74 84.2957 1108.07 81.0295 1108.72 78.4165H1113.62C1112.97 75.6403 1112.64 72.3741 1112.64 68.6179C1112.64 64.6985 1112.97 61.4323 1113.62 58.8193H1143.02C1143.67 61.4323 1144 64.6985 1144 68.6179C1144 72.3741 1143.67 75.6403 1143.02 78.4165H1147.92C1148.57 81.0295 1148.9 84.2957 1148.9 88.2152C1148.9 91.9713 1148.57 95.2375 1147.92 98.0138H1155.27C1155.92 100.627 1156.25 103.893 1156.25 107.812C1156.25 111.569 1155.92 114.835 1155.27 117.611H1160.17C1160.82 120.224 1161.15 123.49 1161.15 127.41C1161.15 131.166 1160.82 134.432 1160.17 137.208C1160.82 139.821 1161.15 143.087 1161.15 147.007C1161.15 150.763 1160.82 154.029 1160.17 156.806H1167.52C1168.17 159.418 1168.5 162.685 1168.5 166.604ZM1140.57 137.208C1139.92 134.432 1139.59 131.166 1139.59 127.41C1139.59 123.49 1139.92 120.224 1140.57 117.611H1135.67C1135.02 114.835 1134.69 111.569 1134.69 107.812C1134.69 103.893 1135.02 100.627 1135.67 98.0138H1120.97C1121.63 100.627 1121.95 103.893 1121.95 107.812C1121.95 111.569 1121.63 114.835 1120.97 117.611H1116.07C1116.73 120.224 1117.05 123.49 1117.05 127.41C1117.05 131.166 1116.73 134.432 1116.07 137.208H1140.57ZM1261.68 68.6179C1261.68 72.3741 1261.35 75.6403 1260.7 78.4165H1246C1246.65 81.0295 1246.98 84.2957 1246.98 88.2152C1246.98 91.9713 1246.65 95.2375 1246 98.0138C1246.65 100.627 1246.98 103.893 1246.98 107.812C1246.98 111.569 1246.65 114.835 1246 117.611C1246.65 120.224 1246.98 123.49 1246.98 127.41C1246.98 131.166 1246.65 134.432 1246 137.208C1246.65 139.821 1246.98 143.087 1246.98 147.007C1246.98 150.763 1246.65 154.029 1246 156.806C1246.65 159.418 1246.98 162.685 1246.98 166.604C1246.98 170.36 1246.65 173.626 1246 176.403H1236.2C1236.85 179.016 1237.18 182.282 1237.18 186.201C1237.18 189.958 1236.85 193.224 1236.2 196H1197.01C1196.35 193.224 1196.03 189.958 1196.03 186.201C1196.03 182.282 1196.35 179.016 1197.01 176.403H1187.21C1186.55 173.626 1186.23 170.36 1186.23 166.604C1186.23 162.685 1186.55 159.418 1187.21 156.806H1206.81C1207.46 159.418 1207.79 162.685 1207.79 166.604C1207.79 170.36 1207.46 173.626 1206.81 176.403H1226.4C1225.75 173.626 1225.42 170.36 1225.42 166.604C1225.42 162.685 1225.75 159.418 1226.4 156.806C1225.75 154.029 1225.42 150.763 1225.42 147.007C1225.42 143.087 1225.75 139.821 1226.4 137.208C1225.75 134.432 1225.42 131.166 1225.42 127.41C1225.42 123.49 1225.75 120.224 1226.4 117.611C1225.75 114.835 1225.42 111.569 1225.42 107.812C1225.42 103.893 1225.75 100.627 1226.4 98.0138C1225.75 95.2375 1225.42 91.9713 1225.42 88.2152C1225.42 84.2957 1225.75 81.0295 1226.4 78.4165H1211.7C1211.05 75.6403 1210.72 72.3741 1210.72 68.6179C1210.72 64.6985 1211.05 61.4323 1211.7 58.8193H1260.7C1261.35 61.4323 1261.68 64.6985 1261.68 68.6179ZM1348.98 176.403C1349.63 179.016 1349.96 182.282 1349.96 186.201C1349.96 189.958 1349.63 193.224 1348.98 196H1299.99C1299.33 193.224 1299.01 189.958 1299.01 186.201C1299.01 182.282 1299.33 179.016 1299.99 176.403H1314.69C1314.03 173.626 1313.71 170.36 1313.71 166.604C1313.71 162.685 1314.03 159.418 1314.69 156.806C1314.03 154.029 1313.71 150.763 1313.71 147.007C1313.71 143.087 1314.03 139.821 1314.69 137.208C1314.03 134.432 1313.71 131.166 1313.71 127.41C1313.71 123.49 1314.03 120.224 1314.69 117.611C1314.03 114.835 1313.71 111.569 1313.71 107.812C1313.71 103.893 1314.03 100.627 1314.69 98.0138C1314.03 95.2375 1313.71 91.9713 1313.71 88.2152C1313.71 84.2957 1314.03 81.0295 1314.69 78.4165H1299.99C1299.33 75.6403 1299.01 72.3741 1299.01 68.6179C1299.01 64.6985 1299.33 61.4323 1299.99 58.8193H1348.98C1349.63 61.4323 1349.96 64.6985 1349.96 68.6179C1349.96 72.3741 1349.63 75.6403 1348.98 78.4165H1334.28C1334.94 81.0295 1335.26 84.2957 1335.26 88.2152C1335.26 91.9713 1334.94 95.2375 1334.28 98.0138C1334.94 100.627 1335.26 103.893 1335.26 107.812C1335.26 111.569 1334.94 114.835 1334.28 117.611C1334.94 120.224 1335.26 123.49 1335.26 127.41C1335.26 131.166 1334.94 134.432 1334.28 137.208C1334.94 139.821 1335.26 143.087 1335.26 147.007C1335.26 150.763 1334.94 154.029 1334.28 156.806C1334.94 159.418 1335.26 162.685 1335.26 166.604C1335.26 170.36 1334.94 173.626 1334.28 176.403H1348.98Z" fill="black"/>
</g>
<defs>
<clipPath id="clip0_904_205">
<rect width="1374" height="245" fill="white"/>
</clipPath>
</defs>
</svg>
